<svg xmlns="http://www.w3.org/2000/svg" width="29.25" height="29.25" viewBox="0 0 29.25 29.25">
  <g id="icon-docs" transform="translate(-3.375 -3.357)">
    <path id="Path_10" data-name="Path 10" d="M18,5.344A12.651,12.651,0,1,1,9.049,9.049,12.573,12.573,0,0,1,18,5.344m0-1.969A14.625,14.625,0,1,0,32.625,18,14.623,14.623,0,0,0,18,3.375Z" transform="translate(0 -0.018)" fill="#fff"/>
    <path id="Icon_awesome-file-alt" data-name="Icon awesome-file-alt" d="M6.524,3.961V0H.7A.7.7,0,0,0,0,.7V14.214a.7.7,0,0,0,.7.7h9.787a.7.7,0,0,0,.7-.7V4.66H7.223A.7.7,0,0,1,6.524,3.961Zm1.864,6.874a.351.351,0,0,1-.35.35H3.146a.351.351,0,0,1-.35-.35V10.6a.351.351,0,0,1,.35-.35H8.039a.351.351,0,0,1,.35.35Zm0-1.864a.351.351,0,0,1-.35.35H3.146a.351.351,0,0,1-.35-.35V8.738a.351.351,0,0,1,.35-.35H8.039a.351.351,0,0,1,.35.35Zm0-2.1v.233a.351.351,0,0,1-.35.35H3.146a.351.351,0,0,1-.35-.35V6.874a.351.351,0,0,1,.35-.35H8.039A.351.351,0,0,1,8.389,6.874Zm2.8-3.323v.178H7.456V0h.178a.7.7,0,0,1,.5.2l2.852,2.854A.7.7,0,0,1,11.185,3.551Z" transform="translate(12.375 10.357)" fill="#fff"/>
  </g>
</svg>
