<svg xmlns="http://www.w3.org/2000/svg" width="41" height="31" viewBox="0 0 41 31">
  <path id="Icon-chart-bar" d="M26,24.5h3a1.075,1.075,0,0,0,1-1V13a1.075,1.075,0,0,0-1-1H26a1.075,1.075,0,0,0-1,1V23.5a1.075,1.075,0,0,0,1,1Zm7.5,0h3a1.075,1.075,0,0,0,1-1V5.5a1.075,1.075,0,0,0-1-1h-3a1.075,1.075,0,0,0-1,1v18A1.075,1.075,0,0,0,33.5,24.5ZM11,24.5h3a1.075,1.075,0,0,0,1-1V18a1.075,1.075,0,0,0-1-1H11a1.075,1.075,0,0,0-1,1v5.5a1.075,1.075,0,0,0,1,1Zm7.5,0h3a1.075,1.075,0,0,0,1-1V8a1.075,1.075,0,0,0-1-1h-3a1.075,1.075,0,0,0-1,1V23.5A1.075,1.075,0,0,0,18.5,24.5Zm20.25,5H5V5.75A1.25,1.25,0,0,0,3.75,4.5H1.25A1.25,1.25,0,0,0,0,5.75V32a2.5,2.5,0,0,0,2.5,2.5H38.75A1.25,1.25,0,0,0,40,33.25v-2.5A1.25,1.25,0,0,0,38.75,29.5Z" transform="translate(0.5 -4)" fill="#002776" stroke="#002776" stroke-width="1"/>
</svg>
