<svg xmlns="http://www.w3.org/2000/svg" width="27.952" height="28.003" viewBox="0 0 27.952 28.003">
  <path id="Icon_feather-phone" data-name="Icon feather-phone" d="M28.118,21.717v3.764a2.509,2.509,0,0,1-2.735,2.509,24.827,24.827,0,0,1-10.826-3.851,24.463,24.463,0,0,1-7.527-7.527A24.827,24.827,0,0,1,3.178,5.735,2.509,2.509,0,0,1,5.674,3H9.438a2.509,2.509,0,0,1,2.509,2.158,16.108,16.108,0,0,0,.878,3.525,2.509,2.509,0,0,1-.565,2.647l-1.593,1.593a20.072,20.072,0,0,0,7.527,7.527l1.593-1.593a2.509,2.509,0,0,1,2.647-.565,16.108,16.108,0,0,0,3.525.878A2.509,2.509,0,0,1,28.118,21.717Z" transform="translate(-1.667 -1.5)" fill="none" stroke="#fff" stroke-linecap="round" stroke-linejoin="round" stroke-width="3"/>
</svg>
