<svg xmlns="http://www.w3.org/2000/svg" width="27" height="30" viewBox="0 0 27 30">
  <g id="icon-data" opacity="0.7">
    <path id="Icon_material-date-range" data-name="Icon material-date-range" d="M13.5,16.5h-3v3h3Zm6,0h-3v3h3Zm6,0h-3v3h3ZM28.5,6H27V3H24V6H12V3H9V6H7.5A2.986,2.986,0,0,0,4.515,9L4.5,30a3,3,0,0,0,3,3h21a3.009,3.009,0,0,0,3-3V9A3.009,3.009,0,0,0,28.5,6Zm0,24H7.5V13.5h21Z" transform="translate(-4.5 -3)" fill="#002776"/>
    <path id="Icon_material-date-range-2" data-name="Icon material-date-range" d="M13.5,16.5h-3v3h3Zm6,0h-3v3h3Zm6,0h-3v3h3ZM28.5,6H27V3H24V6H12V3H9V6H7.5A2.986,2.986,0,0,0,4.515,9L4.5,30a3,3,0,0,0,3,3h21a3.009,3.009,0,0,0,3-3V9A3.009,3.009,0,0,0,28.5,6Zm0,24H7.5V13.5h21Z" transform="translate(-4.5 -3)" fill="#002776"/>
    <rect id="Rectangle_4" data-name="Rectangle 4" width="3" height="3" transform="translate(6 18)" fill="#002776"/>
    <rect id="Rectangle_5" data-name="Rectangle 5" width="3" height="3" transform="translate(12 18)" fill="#002776"/>
    <rect id="Rectangle_6" data-name="Rectangle 6" width="3" height="3" transform="translate(18 18)" fill="#002776"/>
    <rect id="Rectangle_7" data-name="Rectangle 7" width="3" height="3" transform="translate(18 22.5)" fill="#002776"/>
    <rect id="Rectangle_8" data-name="Rectangle 8" width="3" height="3" transform="translate(12 22.5)" fill="#002776"/>
    <rect id="Rectangle_9" data-name="Rectangle 9" width="3" height="3" transform="translate(6 22.5)" fill="#002776"/>
  </g>
</svg>
