<svg id="icon-close" xmlns="http://www.w3.org/2000/svg" width="27" height="27" viewBox="0 0 27 27">
  <path id="Path_3" data-name="Path 3" d="M16.875,6.1a10.77,10.77,0,1,1-7.62,3.154A10.729,10.729,0,0,1,16.875,6.1m0-2.726a13.5,13.5,0,1,0,13.5,13.5,13.5,13.5,0,0,0-13.5-13.5Z" transform="translate(-3.375 -3.375)" fill="#cf0808"/>
  <path id="Path_4" data-name="Path 4" d="M22.9,21.191,21.191,22.9l-4.4-4.4-4.4,4.4-1.709-1.709,4.4-4.4-4.4-4.4L12.4,10.688l4.4,4.4,4.4-4.4L22.9,12.4l-4.4,4.4Z" transform="translate(-3.294 -3.294)" fill="#cf0808"/>
</svg>
